<svg version="1.2" xmlns="http://www.w3.org/2000/svg" viewBox="0 0 1549 223" width="1549" height="223"><style>.a{fill:#fff}</style><path fill-rule="evenodd" class="a" d="m1284.3 15.8c0.8-2.4 2-4.6 3.6-6.6 1.6-2 3.5-3.7 5.6-5.1 2.2-1.3 4.5-2.3 7-2.9 2.5-0.6 5-0.7 7.6-0.4h63.4l-1.6 4.6c-0.8 2.8-2.1 5.6-3.8 8-1.6 2.5-3.6 4.7-6 6.5-2.3 1.9-4.9 3.3-7.7 4.4-2.8 1-5.7 1.6-8.7 1.7h-42q-2.8-0.1-5.5 0-2.8 0-5.5 0.1-2.8 0.2-5.6 0.4-2.7 0.2-5.5 0.4z"/><path fill-rule="evenodd" class="a" d="m1493 149.6c0 3.7 0.7 7.3 2 10.6 1.4 3.4 3.4 6.5 6 9 2.6 2.6 5.6 4.6 9 6 3.4 1.4 7 2.1 10.6 2 3.7 0.1 7.3-0.6 10.8-1.9 3.4-1.4 6.5-3.4 9.1-5.9 2.7-2.6 4.7-5.7 6.2-9.1 1.4-3.3 2.1-7 2.1-10.7 0-3.7-0.7-7.3-2.1-10.7-1.4-3.5-3.5-6.6-6.1-9.2-2.7-2.6-5.8-4.7-9.2-6.1-3.4-1.4-7.1-2.1-10.8-2.1-3.7-0.1-7.3 0.7-10.7 2.1-3.4 1.4-6.5 3.5-9 6.1-2.6 2.7-4.6 5.8-6 9.2-1.3 3.4-2 7.1-1.9 10.7z"/><path fill-rule="evenodd" class="a" d="m845.8 116.1q-0.3 1.7-0.5 3.4-0.2 1.7-0.3 3.5-0.2 1.7-0.3 3.4 0 1.7-0.1 3.4c0 17 7.1 26.7 20.2 26.7 11.7 0 19.7-6.4 27.7-21.6h18.6c-8.3 26.2-25 39.8-48.5 39.8-25.9 0-41.5-17.7-41.5-47.4 0-43.6 26.1-77.5 59.8-77.5 22.9 0 36.8 16.2 36.8 42.8q0 3-0.2 5.9-0.1 2.9-0.5 5.8-0.4 2.9-1 5.8-0.6 2.8-1.4 5.6zm48.1-16.9q0.3-1.4 0.5-2.9 0.2-1.4 0.4-2.8 0.1-1.4 0.2-2.9 0.1-1.4 0.1-2.9c0-12.4-6-19.8-15.8-19.8-12.9 0-23.2 11-29.6 31.8z"/><path fill-rule="evenodd" class="a" d="m1019.7 52.5l-8.5 38h-15.1q0.2-0.8 0.3-1.6 0.1-0.9 0.2-1.7 0.1-0.8 0.1-1.6 0.1-0.9 0.1-1.7c0.2-2.3-0.2-4.6-1-6.8-0.9-2.2-2.2-4.1-3.9-5.7-1.6-1.6-3.7-2.8-5.9-3.5-2.2-0.8-4.5-1-6.8-0.7-11 0-18.6 6.3-18.6 15.5q0 1.5 0.3 2.9 0.3 1.4 0.9 2.7 0.7 1.3 1.6 2.5 0.9 1.1 2 2 1.7 1.3 3.4 2.5 1.7 1.2 3.5 2.3 1.7 1.1 3.6 2.1 1.8 1.1 3.6 2 2.3 1.4 4.6 2.8 2.2 1.5 4.4 3 2.2 1.5 4.4 3.1 2.2 1.6 4.3 3.2 2.4 2.1 4.4 4.7 1.9 2.6 3.2 5.5 1.3 2.9 1.9 6.1 0.7 3.2 0.5 6.4c0 5.2-1.1 10.3-3.2 15.1-2.1 4.8-5.2 9.1-9 12.6-3.8 3.6-8.3 6.3-13.2 8.1-4.9 1.8-10.1 2.5-15.3 2.2-2.9 0.3-5.9 0.2-8.8-0.4-2.8-0.6-5.6-1.6-8.2-3.1-2.6-1.4-4.9-3.2-6.9-5.3-2.1-2.1-3.7-4.5-5.1-7.2l-2.9 13.5h-15.1l9-41.4h15.1q-0.1 0.9-0.2 1.8-0.1 0.9-0.2 1.7-0.1 0.9-0.2 1.8 0 0.9 0 1.8c-0.2 2.7 0.3 5.5 1.3 8.1 1.1 2.5 2.6 4.9 4.7 6.8 2 1.9 4.4 3.3 7 4.2 2.6 0.9 5.4 1.2 8.1 1 2.5 0.2 5.1-0.1 7.4-0.9 2.4-0.7 4.6-2 6.5-3.7 1.9-1.6 3.4-3.7 4.4-6 1-2.2 1.6-4.7 1.6-7.2q0.1-1.6-0.3-3.2-0.3-1.6-1-3.1-0.8-1.4-1.8-2.7-1.1-1.2-2.4-2.2-1.7-1.4-3.6-2.7-1.8-1.3-3.7-2.5-1.9-1.3-3.8-2.4-2-1.2-4-2.3c-20.6-12.4-25.6-18.7-25.6-32.2 0-4.9 1-9.8 3-14.4 2-4.5 4.8-8.6 8.4-12 3.6-3.4 7.9-6 12.5-7.7 4.7-1.7 9.6-2.5 14.6-2.2 2.6-0.2 5.2-0.1 7.7 0.4 2.6 0.5 5.1 1.4 7.4 2.6 2.3 1.2 4.4 2.7 6.3 4.5 1.8 1.8 3.4 3.9 4.7 6.2l2.4-11.1z"/><path fill-rule="evenodd" class="a" d="m1072.6 52.5l-3.4 15.2c1.6-2.6 3.6-5 5.8-7.1 2.2-2.2 4.7-4 7.3-5.6 2.7-1.5 5.5-2.7 8.5-3.6 3-0.8 6-1.3 9.1-1.5 19.9 0 33.9 19.3 33.9 46.5 0 42.3-25.7 78.3-55.4 78.3-3.2 0.3-6.4 0-9.5-0.9-3.1-0.9-6-2.3-8.5-4.2-2.6-1.9-4.8-4.2-6.6-6.9-1.7-2.7-3-5.6-3.7-8.8l-11.5 51.1h18.4l-3.6 17.2h-54.8l3.9-17.2h15.3l30.6-136h-16.8l3.7-16.5zm-3.3 33.7q-2.5 5.3-4.5 10.8-1.9 5.5-3.3 11.1-1.4 5.7-2.3 11.4-0.8 5.8-1.1 11.6c0 15.5 7 25.4 17.8 25.4 9.7 0 18-6.6 24.4-19.5q2.3-5.1 4.1-10.3 1.8-5.3 3.1-10.7 1.3-5.4 2-10.9 0.7-5.5 0.9-11.1c0-16.2-7.1-26.1-18-26.1-8.8 0-16.9 6.3-23.1 18.3z"/><path fill-rule="evenodd" class="a" d="m1157.7 90.8l7-28.2q4-3.2 8.4-5.6 4.4-2.5 9.2-4.1 4.8-1.7 9.8-2.5 5.1-0.8 10.1-0.7c21.2 0 33.3 10.2 33.3 27.4q-0.1 2.8-0.4 5.6-0.2 2.8-0.6 5.5-0.4 2.8-0.9 5.5-0.6 2.8-1.3 5.5l-12.6 55.6h15.8l-3.9 17.2h-36.2l3.7-17.2c-8.5 13.7-17.7 19.7-30.3 19.7-3.9 0.1-7.7-0.7-11.2-2.2-3.6-1.5-6.8-3.8-9.4-6.5-2.7-2.8-4.8-6.1-6.1-9.8-1.3-3.6-1.9-7.4-1.7-11.3 0-17.3 12-32.3 32.3-40.2q4.8-1.7 9.6-3.2 4.9-1.5 9.8-2.7 4.9-1.2 9.8-2.2 5-1 10-1.7l0.9-4.6q0.4-1.3 0.6-2.6 0.3-1.3 0.5-2.7 0.2-1.3 0.4-2.7 0.1-1.3 0.1-2.6c0-7.7-5.3-11.7-15.1-11.7-13.7 0-21.1 6.3-25.8 22.9zm51 17.9q-3.6 0.6-7.1 1.5-3.6 0.8-7 1.9-3.5 1.1-6.9 2.4-3.4 1.3-6.7 2.8c-2.3 1-4.5 2.2-6.5 3.8-1.9 1.5-3.7 3.3-5.1 5.4-1.5 2-2.7 4.2-3.5 6.6-0.8 2.4-1.3 4.8-1.4 7.3-0.2 2 0.1 4 0.8 5.9 0.6 1.8 1.7 3.5 3 5 1.4 1.4 3 2.6 4.9 3.3 1.8 0.8 3.8 1.1 5.8 1.1q3.3-0.2 6.4-1.3 3.2-1 5.9-2.9 2.8-1.9 4.9-4.4 2.2-2.5 3.6-5.5 1.2-2.7 2.2-5.5 1-2.7 1.9-5.6 0.8-2.8 1.4-5.7 0.7-2.9 1.1-5.8z"/><path fill-rule="evenodd" class="a" d="m1301.3 72c9.6-15 20.2-22.1 32.7-22.1 15.2 0 25.2 11.2 25.2 27.7q-0.2 3.5-0.5 7.1-0.4 3.5-0.9 7.1-0.6 3.5-1.4 7-0.7 3.5-1.7 6.9l-11.2 49.4h16.9l-4 17.2h-51.3l3.9-17.2h11.7l12.6-54.9q0.5-1.8 0.8-3.6 0.4-1.8 0.7-3.6 0.2-1.8 0.4-3.7 0.2-1.8 0.2-3.6c0.2-1.9 0-3.7-0.5-5.5-0.6-1.7-1.6-3.3-2.9-4.7-1.2-1.3-2.8-2.4-4.5-3.1-1.7-0.6-3.6-0.9-5.4-0.8q-3 0.2-5.9 1.1-2.8 0.9-5.4 2.5-2.5 1.6-4.6 3.8-2.1 2.1-3.6 4.8-1.4 2.5-2.7 5.2-1.2 2.7-2.1 5.5-1 2.7-1.7 5.6-0.6 2.9-1 5.8l-11 49.3h13.3l-3.7 17.2h-51.5l3.8-17.2h15.1l19.6-86h-17.2l3.8-16.5h38.4z"/><path fill-rule="evenodd" class="a" d="m1391.8 90.8l7-28.2q4-3.2 8.4-5.6 4.5-2.5 9.3-4.1 4.8-1.7 9.8-2.5 5-0.8 10.1-0.7c21.1 0 33.2 10.2 33.2 27.4q-0.1 2.8-0.3 5.6-0.3 2.8-0.7 5.5-0.3 2.8-0.9 5.5-0.6 2.8-1.3 5.5l-12.6 55.6h15.8l-3.9 17.2h-36.2l3.7-17.2c-8.5 13.7-17.6 19.7-30.3 19.7-3.8 0.1-7.6-0.7-11.2-2.2-3.5-1.5-6.7-3.8-9.4-6.5-2.7-2.8-4.7-6.1-6-9.8-1.4-3.6-1.9-7.4-1.7-11.3 0-17.3 11.9-32.3 32.3-40.2q4.7-1.7 9.6-3.2 4.8-1.5 9.7-2.7 5-1.2 9.9-2.2 5-1 10-1.7l0.9-4.6q0.3-1.3 0.6-2.6 0.2-1.4 0.4-2.7 0.2-1.3 0.4-2.7 0.1-1.3 0.2-2.6c0-7.7-5.3-11.7-15.1-11.7-13.8 0-21.2 6.3-25.9 22.9zm51.1 17.9q-3.6 0.6-7.2 1.5-3.5 0.8-7 1.9-3.5 1.1-6.9 2.4-3.4 1.3-6.7 2.8c-2.3 1-4.5 2.2-6.4 3.8-2 1.5-3.7 3.3-5.2 5.4-1.5 2-2.6 4.2-3.4 6.6-0.9 2.4-1.3 4.8-1.5 7.3-0.1 2 0.1 4 0.8 5.9 0.7 1.8 1.7 3.5 3.1 5 1.3 1.4 3 2.6 4.8 3.3 1.8 0.8 3.8 1.1 5.8 1.1q3.3-0.2 6.5-1.3 3.1-1 5.9-2.9 2.7-1.9 4.9-4.4 2.1-2.5 3.5-5.5 1.2-2.7 2.3-5.5 1-2.7 1.8-5.6 0.8-2.8 1.5-5.7 0.6-2.9 1-5.8z"/><path class="a" d="m81.1 128.3l38-78.6h25.4l5.3 125h-23.1l-3.5-84.5h-0.3l-41.8 84.5h-11.4l-19.8-86.9h-0.3l-25.5 86.9h-24.1l36.7-125h26.2l18.2 78.6z"/><path class="a" d="m166 174.7l15.9-125h70.3l-2.6 20.9h-46.4l-3.8 29.5h40.8l-2.7 20.9h-40.7l-4.2 32.8h58.5l-2.6 20.9h-82.5z"/><path fill-rule="evenodd" class="a" d="m315.8 49.7c45 0 58.2 33.7 58.2 60.8 0 37.3-23.1 64.2-53.2 64.2h-58.2l15.8-125zm-26.6 104.1h22.4c26.7 0 37.5-22 37.5-43.6 0-21.7-13.2-39.6-38-39.6h-11.5z"/><path class="a" d="m385.4 174.7l15.9-125h23.9l-15.9 125h-23.9z"/><path fill-rule="evenodd" class="a" d="m423.8 174.7l55.2-126.8h25.4l19.8 126.8h-24.4l-3.4-27.3h-35.3l-10.9 27.3zm70.5-45.1l-5.9-55.4-19.9 55.4z"/><path fill-rule="evenodd" class="a" d="m533.2 142.6q3.4 2.8 7.1 5 3.8 2.2 7.8 3.8 4.1 1.7 8.4 2.7 4.2 1 8.6 1.3c9.8 0 16.2-5.4 16.2-13.6 0-20.8-41.5-23.2-41.5-56 0-5.1 1-10.2 3-14.9 2-4.7 5-9 8.7-12.5 3.7-3.5 8.1-6.3 12.9-8.1 4.8-1.8 9.9-2.5 15.1-2.3q4.2 0.1 8.5 0.7 4.2 0.7 8.3 2 4.1 1.2 8 3.1 3.8 1.8 7.4 4.2l-3.3 21.9q-3-2.3-6.4-4.3-3.3-1.9-6.9-3.3-3.6-1.4-7.3-2.2-3.8-0.9-7.6-1.1c-2-0.2-3.9 0-5.8 0.6-1.9 0.6-3.6 1.6-5.1 2.9-1.4 1.2-2.6 2.8-3.5 4.6-0.8 1.7-1.3 3.6-1.4 5.6 0 18 41.4 20.4 41.4 55.4 0.3 5.1-0.5 10.2-2.3 14.9-1.8 4.8-4.6 9.1-8.2 12.7-3.6 3.6-7.9 6.5-12.7 8.3-4.7 1.8-9.8 2.6-14.9 2.4q-5.1 0.1-10.2-0.6-5.1-0.7-10-2.2-4.9-1.5-9.4-3.8-4.6-2.3-8.7-5.4z"/><path class="a" d="m619.6 174.7l15.9-125h70.3l-2.6 20.9h-46.4l-3.8 29.5h40.7l-2.6 20.9h-40.8l-4.1 32.8h58.5l-2.6 20.9h-82.5z"/><path class="a" d="m718.4 70.6l2.6-20.9h96.3l-2.6 20.9h-36.7l-13.2 104.1h-23.9l13.2-104.1h-35.7z"/></svg>