<svg version="1.2" xmlns="http://www.w3.org/2000/svg" viewBox="0 0 1599 627" width="1599" height="627">
	<title>Warner_Music_Group_logo_(2021)-svg</title>
	<style>
		.s0 { fill: #ffffff } 
	</style>
	<g id="Layer">
		<path id="Layer" fill-rule="evenodd" class="s0" d="m337.7 626.4c-162.8 0-247.4-35.9-298.1-120.5-28.5-48.7-38.6-136.1-38.6-192.2 0-56.1 10.1-143.4 38.6-192.2 50.7-84.6 135.3-120.5 298.1-120.5 162.9 0 247.5 35.9 298.1 120.5 28.5 48.8 38.6 136.1 38.6 192.2 0 56.1-10.1 143.4-38.6 192.2-50.6 84.6-135.2 120.5-298.1 120.5zm138-221.5l-81-196c-12.8-29.4-39.5-37.7-57.9-37.7-39.6 0-73.6 41.4-56.1 85.5l80.9 196c12.9 29.5 39.6 37.7 58 37.7 39.5 0 73.6-41.4 56.1-85.5zm-162.8 0l-81-196c-12.9-29.4-39.5-37.7-58-37.7-39.5 0-73.6 41.4-56.1 85.5l81 196c12.9 29.5 39.6 37.7 57.9 37.7 39.6 0 73.6-41.4 56.2-85.5zm208.3-62.5c39.6 0 73.7-41.4 56.2-85.6l-19.9-47.8c-12.8-29.5-39.5-37.8-57.9-37.8-39.6 0-73.6 41.4-56.1 85.6l19.8 47.9c12.8 29.4 39.5 37.7 57.9 37.7z"/>
		<path id="Layer" fill-rule="evenodd" class="s0" d="m764.2 202l-41.4-149.9h33.3l23.5 93.7q0.1 0.7 0.3 1.4 0.1 0.8 0.3 1.5 0.2 0.8 0.4 1.5 0.2 0.7 0.4 1.4 0 0.1 0 0.2 0.1 0 0.1 0.1 0 0 0 0.1 0 0 0 0.1 0-0.1 0-0.1 0.1-0.1 0.1-0.2 0 0 0-0.1 0 0 0-0.1 0.3-0.7 0.5-1.5 0.2-0.7 0.3-1.5 0.2-0.7 0.4-1.4 0.1-0.8 0.3-1.5l24.1-93.7h31.6l24.2 93.5q0.1 0.7 0.3 1.4 0.1 0.8 0.3 1.5 0.2 0.8 0.4 1.5 0.2 0.7 0.4 1.5c0 0.2 0.2 0.4 0.2 0.6v-0.3q0.2-0.7 0.4-1.4 0.2-0.7 0.3-1.4 0.2-0.7 0.4-1.4 0.1-0.8 0.3-1.5l23.5-93.9h33.3l-41.4 149.9h-32.7l-25.7-99.6-25.7 99.6zm140 0l60.6-149.9h29l0.5 1.3 60.1 148.6h-33.9l-14.5-38.1h-53.5l-14.6 38.1zm59.3-66.8h31.6l-13.9-36.8-1.9-5.5-3.5 10.1zm186.3 4.2l35.7 62.6h-36.1l-33.8-59.2h-20.1v59.2h-31.6v-149.9h64.4c33.2 0 53.9 16.6 53.9 43.3 0 20.6-10.9 35.4-32.4 44zm-21.5-59.1h-32.8v34.3h32.8c14.7 0 22.3-5.7 22.3-17.1 0-11.4-7.5-17.2-22.3-17.2zm104.9 121.7h-30.7v-149.9h31.1l61.4 93.6q0.3 0.4 0.6 0.8 0.3 0.5 0.5 0.9 0.3 0.5 0.5 0.9 0.3 0.5 0.5 0.9l0.4 0.7v-97.8h30.8v149.9h-31.1l-0.6-0.9-60.9-93.3q-0.3-0.4-0.5-0.9-0.3-0.4-0.6-0.9-0.3-0.4-0.5-0.9-0.3-0.4-0.5-0.9l-0.3-0.6zm150.8-63.1v34.4h73.8v28.7h-105.4v-149.9h104.7v28.7h-73.1v29.4h67.3v28.7zm214.5 63.1h-36.1l-33.7-59.1h-20.1v59.1h-31.6v-149.9h64.2c33.3 0 53.9 16.6 53.9 43.3 0 20.6-10.8 35.4-32.3 44zm-57.2-121.7h-32.8v34.2h32.7c14.8 0 22.3-5.7 22.3-17.1 0-11.3-7.4-17.1-22.2-17.1zm-668.8 156.9h32.4v149.9h-30.8v-77.9l-3.1 9.6-29.1 68.3h-29l-29.1-68.1-3.1-9.8v77.9h-30.8v-149.9h32.4l45.1 112.4zm86.6 0v90c0 21.1 11 33.3 30.2 33.3 19.2 0 30.2-12.2 30.2-33.3v-90h31.6v92.7c0 36.5-24.2 60.1-61.8 60.1-37.6 0-61.8-23.6-61.8-60.1v-92.7zm194.8 107c0-11-9.3-17-34.4-22.1-30-5.7-47.3-22.4-47.3-45.8 0-25.1 21.4-42 53.3-42 28.6 0 47.9 13 57.3 38.8l0.6 1.6-25.4 14.6-0.8-2.3c-5.5-16.2-16.4-24.5-32.5-24.5-10.3 0-22.3 3.3-22.3 13.2 0 9.9 9.4 15.7 33.6 20.7 34.1 7.1 49.3 21.6 49.3 46.8 0 23.3-19.4 46.8-56.4 46.8-33.7 0-56.8-17.6-63.3-48.2l-0.3-1.6 28-14.2 0.5 2.7c4.1 22.6 15.2 33.1 34.9 33.1 15.2 0 25-6.9 25.2-17.6zm48.7-107h31.6v149.9h-31.6zm122.5 153c-45.2 0-76.7-32.1-76.7-78 0-45.1 32.7-77.9 77.7-77.9 30.2 0 54.8 14.6 65.8 39.3l0.7 1.5-25.6 18.5-1.1-2.2c-9.1-18.8-22-27.6-40.6-27.6-26 0-44.8 20.4-44.8 48.4 0 28 18.8 48.3 44.8 48.3 18.1 0 32.3-9.4 42.3-28l1.1-2.1 25 17.9-1.1 1.7c-16.9 25.4-33.4 40.1-67.5 40.2zm-522.9 100.1h78.6v82.1h-21.7l-5.1-17.4c-10 13.3-25 20.3-43.6 20.3-42.4 0-74.3-33.5-74.3-77.9 0-44.5 33.4-78 77.6-78 29.4 0 53.9 13.8 65.6 36.8l0.8 1.6-23.9 17.4-1.1-2.1c-8.5-16.6-23-25.4-41.8-25.4-26.2 0-45.2 21.2-45.2 49.6 0 28.5 17.7 48.4 43.2 48.4 27.6 0 35.4-18.6 37.5-28.8h-46.6zm185.2 19.3l35.8 62.7h-36.1l-33.7-59.2h-20.2v59.2h-31.6v-150h64.4c33.2 0 53.9 16.6 53.9 43.4 0 20.6-11 35.4-32.5 43.9zm0.8-41.9c0-11.3-7.5-17.1-22.3-17.1h-32.7v34.3h32.8c14.7 0 22.3-5.8 22.3-17.2zm118.9 107.6c-42.6 0-77.1-34.8-77.1-77.9 0-43.1 34.5-78 77.1-78 42.6 0 77 34.9 77 78 0 43.1-34.4 77.9-77 77.9zm45-78c0-28.9-18.1-48.3-45-48.3-27 0-45.1 19.4-45.1 48.4 0 28.9 18.1 48.3 45.1 48.3 26.9 0 45-19.4 45-48.3zm140.7-75h31.5v92.7c0 36.5-24.2 60.2-61.8 60.2-37.6 0-61.8-23.7-61.8-60.2v-92.7h31.6v89.9c0 21.3 11 33.4 30.2 33.4 19.2 0 30.3-12.1 30.3-33.4zm179.1 49.6c0 30.5-21.7 49.6-56.7 49.6h-36.7v50.8h-31.6v-150h68.3c35 0 56.7 19 56.7 49.6zm-31.7 0c0-13.7-8.9-20.9-25.8-20.9h-35.9v41.8h35.9c16.9 0 25.9-7.3 25.9-20.9z"/>
	</g>
</svg>