<?xml version="1.0" encoding="UTF-8"?><svg id="Capa_2" xmlns="http://www.w3.org/2000/svg" viewBox="0 0 1530 206" width="1530" height="206"><polygon points="769.44 130.58 734.3 11.4 662.66 11.4 662.66 197.07 707.44 197.07 707.09 57.9 750.84 197.07 789.07 197.07 831.79 56.52 831.44 197.07 876.91 197.07 876.91 11.4 805.26 11.4 769.44 130.58" fill="#895252"/><polygon points="369.17 11.74 315.43 11.74 244.13 88.22 244.47 11.74 197.28 11.74 197.28 197.07 244.13 197.07 244.13 140.23 267.21 117.15 319.57 197.07 373.65 197.07 299.24 85.8 369.17 11.74" fill="#895252"/><polygon points="1270.29 12.09 1270.64 196.72 1316.11 196.72 1315.66 12.09 1270.29 12.09" fill="#895252"/><path d="M1461.23,149.15c-5.63,7.62-14.24,13.94-31.03,14.6-10.53.41-19.59-2.61-26.79-9.11-6.85-6.18-11.68-13.08-14.47-23.04-2.14-7.66-3.48-19.3-3.48-28.6,0-7.97.53-18.26,3.48-27.66,4.91-15.66,16.85-30.94,40.18-31.08,13.52-.06,34.87,3.91,39.49,33.59l44.75-1.39c-7.17-44.19-39.96-69.13-85.9-68.2-25.49.53-46.36,9.88-62.69,25.97-22.66,22.32-24.03,48.2-25.05,58.58-.85,8.6-1.04,30.06,6.91,52.35,4.45,12.48,11.42,24.16,23.7,34.4,15.6,13.02,36.12,21.35,60.33,20.69,30.04-.81,48.25-5.98,67.99-31.2,2.86-3.65,6.9-10.51,9.17-17,2.26-6.49,3.92-13.54,5.38-21.23l-43.68-2.58c-.72,7.85-3.69,14.65-8.3,20.89Z" fill="#895252"/><path d="M1019.36,11.37l-.32,122.55c.07,16.99-13.68,30.81-30.68,30.81h-8.39c-16.16,0-29.98-12.87-30.08-29.03l-.08-123.61-45.62.02.21,117.88c-.27,41.74,31.81,72.53,71.99,72.34l17.91-.08c39.13-.18,70.09-31.65,70.09-70.78l-.41-120.06-44.62-.04Z" fill="#895252"/><path d="M518.27,98.88c-20.38-9.82-41.85-13.79-43.5-14.09-7.92-1.44-23.37-5.33-26.6-6.29-2.6-.77-6.33-2.35-9.85-4.12-9.1-4.59-9.91-16.09-4.85-23.12,4.27-5.94,6.7-6.32,7.55-6.8,6.14-3.49,21.76-4.73,34.01-1.35,11.28,3.12,17.26,11.64,17.12,23.87l45.67.07s-.02-2.93-.07-4.01c-1.66-33.35-33.48-57.1-77.09-56.7-15.91.15-29.41,2.5-41.01,7.12-8.66,3.45-16.5,7.99-22.23,14.77-8.86,10.48-13.35,20.48-13.54,34.71-.12,9.3,2.36,20.39,7.05,27.37,4.46,6.63,7.29,9.16,10.68,11.78,5.87,4.55,10.89,7.27,16.72,9.97,3.44,1.59,19.06,6.47,30.78,8.39.1.06.29.05,1.14.17,5.77.83,18.18,3.21,22.33,4.28,3.91,1.01,10.15,3.41,11.63,4.32,6.25,3.86,10.86,8.58,10.3,17-.38,5.77-2.52,10.85-6.92,13.88-9.27,6.38-18.48,6.98-29.38,6.26-19.87-1.3-33.69-10.94-32.7-28.21l-.02-2.28-47-.23v.5c.22,20.36,7.69,36.2,22.16,48.48,13.26,11.25,34.02,17.33,60.3,17.53,1.42.01,2.83.05,4.21.05,28.04,0,48.5-7.14,61.7-20.6,10.65-10.86,15.38-25.4,14.6-43.37-.34-7.93-3.55-29.88-23.18-39.33Z" fill="#895252"/><path d="M1224.04,99.03c-20.38-9.82-42.47-13.44-44.13-13.74-7.92-1.44-23.23-5.19-26.47-6.15-2.6-.77-5.9-2.27-9.41-4.04-9.1-4.59-10.48-16.94-5.43-23.98,4.27-5.94,6.68-6.71,7.53-7.2,6.14-3.49,22.47-4.77,34.72-1.38,11.28,3.12,17.91,11.75,17.77,23.98,0,0,43.48-.01,43.48-.18.58-19.82-10.1-37.39-28.68-48.01-12.71-7.26-29.56-11.06-47.27-10.9-15.91.15-28.61,2.81-40.21,7.43-8.66,3.45-16.67,7.97-22.4,14.75-8.86,10.48-12.93,19.21-13.11,33.44-.12,9.3,2.52,20.13,7.21,27.1,4.46,6.63,7.11,8.96,10.49,11.58,5.87,4.55,12.1,7.03,17.92,9.73,3.44,1.59,15.93,5.51,27.65,7.43.1.06,20.68,3.98,24.83,5.06,3.91,1.01,10.08,3.8,11.56,4.72,6.25,3.86,11.26,8.57,11.47,17,.16,6.63-3.5,11.94-7.65,15.3-8.98,7.27-27.21,6.56-31,6.56-21.4,0-34.5-17.03-32.71-31.05l-44.59-.2c.23,20.36,7.98,36.06,22.44,48.34,13.26,11.25,31.83,15.57,58.1,16.49,22.73.79,52.23-6.23,65.42-19.69,10.65-10.86,15.95-25.1,15.17-43.07-.34-7.93-3.08-29.85-22.71-39.31Z" fill="#895252"/></svg>
