<?xml version="1.0" encoding="UTF-8"?><svg id="Capa_2" xmlns="http://www.w3.org/2000/svg" viewBox="0 0 1530 206"><polygon points="769.44 130.58 734.3 11.4 662.66 11.4 662.66 197.07 707.44 197.07 707.09 57.9 750.84 197.07 789.07 197.07 831.79 56.52 831.44 197.07 876.91 197.07 876.91 11.4 805.26 11.4 769.44 130.58" fill="#f3f526"/><polygon points="369.17 11.74 315.43 11.74 244.13 88.22 244.47 11.74 197.28 11.74 197.28 197.07 244.13 197.07 244.13 140.23 267.21 117.15 319.57 197.07 373.65 197.07 299.24 85.8 369.17 11.74" fill="#f3f526"/><rect x="1270.29" y="12.09" width="45.81" height="184.63" fill="#f3f526"/><path d="M1467.79,126.63l-.02.5-.5-.05c-1.59,17.44-7.27,33.75-37.8,34.94-10.53.41-19.41-2.79-26.4-9.51-10.47-10.07-16.48-28.12-16.48-49.52s5.57-56.93,42.9-57.15c13.52-.06,32.09,3.24,36.71,32.93l.45-.07v.1s48-2.28,48-2.28l-.02-.37h.5s-.02-.24-.02-.24c-9.9-45.09-40.7-69.44-86.63-68.51-25.49.53-47.6,9.31-63.93,25.4-22.66,22.32-25.38,49.91-26.4,60.3-1.33,13.42-3,59.41,31.23,87.96,15.6,13.02,35.46,19.89,59.1,20.42.79.02,1.58.03,2.36.03,44.29,0,76.91-27.48,85.41-72.19l.11-.57-48.58-2.13Z" fill="#f3f526"/><path d="M1019.04,133.92c.07,16.99-13.68,30.81-30.68,30.81h-8.39c-16.16,0-29.29-13.05-29.39-29.21l-.77-123.44-46.27-.69v118.42c-.27,41.74,32.67,72.7,72.85,72.52l17.91-.08c39.13-.18,70.76-31.96,70.76-71.09V11.4l-46.56.69.53,121.83Z" fill="#f3f526"/><path d="M518.27,98.88c-20.38-9.82-41.85-13.79-43.5-14.09-7.92-1.44-23.37-5.33-26.6-6.29-2.6-.77-6.33-2.35-9.85-4.12-9.1-4.59-9.91-16.09-4.85-23.12,4.27-5.94,6.7-6.32,7.55-6.8,6.14-3.49,21.76-4.73,34.01-1.35,11.28,3.12,17.26,11.64,17.12,23.87l45.67.07s-.02-2.93-.07-4.01c-1.66-33.35-33.48-57.1-77.09-56.7-15.91.15-29.41,2.5-41.01,7.12-8.66,3.45-16.5,7.99-22.23,14.77-8.86,10.48-13.35,20.48-13.54,34.71-.12,9.3,2.36,20.39,7.05,27.37,4.46,6.63,7.29,9.16,10.68,11.78,5.87,4.55,10.89,7.27,16.72,9.97,3.44,1.59,19.06,6.47,30.78,8.39.1.06.29.05,1.14.17,5.77.83,18.18,3.21,22.33,4.28,3.91,1.01,10.15,3.41,11.63,4.32,6.25,3.86,10.86,8.58,10.3,17-.38,5.77-2.52,10.85-6.92,13.88-9.27,6.38-18.48,6.98-29.38,6.26-19.87-1.3-33.69-10.94-32.7-28.21l-.02-2.28-47-.23v.5c.22,20.36,7.69,36.2,22.16,48.48,13.26,11.25,34.02,17.33,60.3,17.53,1.42.01,2.83.05,4.21.05,28.04,0,48.5-7.14,61.7-20.6,10.65-10.86,15.38-25.4,14.6-43.37-.34-7.93-3.55-29.88-23.18-39.33Z" fill="#f3f526"/><path d="M1224.04,99.03c-20.38-9.82-41.85-13.79-43.5-14.09-7.92-1.44-23.37-5.33-26.6-6.29-2.6-.77-6.33-2.35-9.85-4.12-9.1-4.59-9.91-16.09-4.85-23.12,4.27-5.94,6.7-6.32,7.55-6.8,6.14-3.49,21.76-4.73,34.01-1.35,11.28,3.12,17.26,11.64,17.12,23.87l45.67.07s-.02-2.93-.07-4.01c-1.66-33.35-33.48-57.1-77.09-56.7-15.91.15-29.41,2.5-41.01,7.12-8.66,3.45-16.5,7.99-22.23,14.77-8.86,10.48-13.35,20.48-13.54,34.71-.12,9.3,2.36,20.39,7.05,27.37,4.46,6.63,7.29,9.16,10.68,11.78,5.87,4.55,10.89,7.27,16.72,9.97,3.44,1.59,19.06,6.47,30.78,8.39.1.06.29.05,1.14.17,5.77.83,18.18,3.21,22.33,4.28,3.91,1.01,10.15,3.41,11.63,4.32,6.25,3.86,10.86,8.58,10.3,17-.38,5.77-2.52,10.85-6.92,13.88-9.27,6.38-18.48,6.98-29.38,6.26-19.87-1.3-33.69-10.94-32.7-28.21l-.02-2.28-47-.23v.5c.22,20.36,7.69,36.2,22.16,48.48,13.26,11.25,34.02,17.33,60.3,17.53,1.42.01,2.83.05,4.21.05,28.04,0,48.5-7.14,61.7-20.6,10.65-10.86,15.38-25.4,14.6-43.37-.34-7.93-3.55-29.88-23.18-39.33Z" fill="#f3f526"/><path d="M142.58,100.51c32.32-16.36,25.36-47.57,25.36-47.57-2.64-26.08-26.52-41.25-54.31-41.2H13.81v185.33l104.75.28c28.82-.28,56.25-19.78,56.34-50.2,0,0,1.95-39.37-32.32-46.64ZM60.27,45.48h40.32c12.58.52,21.69,8.65,21.87,19.44l.04,2.46c.17,9.84-7.76,17.9-17.6,17.9h-44.64v-39.8ZM127.99,142.79c-1.22,13.51-9.71,19.32-19.64,19.29l-48.07-.12v-43.94h45.66c12.62.45,21.16,6.61,22.05,21.43v3.34Z" fill="#f3f526"/></svg>